<svg width="29" height="29" viewBox="0 0 29 29" fill="none" xmlns="http://www.w3.org/2000/svg">
<path d="M6.73095 0.00493773C7.03202 0.00378252 7.03202 0.00378252 7.33918 0.00260398C7.75959 0.00206019 8.18001 0.00351741 8.60041 0.006903C9.24435 0.011244 9.88785 0.00691714 10.5318 0.00179331C10.9419 0.00232477 11.3519 0.00335515 11.762 0.00493773C12.0501 0.00249355 12.0501 0.00249355 12.3439 0C13.6616 0.0187022 13.6616 0.0187021 14.3174 0.476995C14.7384 1.13251 14.7221 1.56497 14.5999 2.32552C14.1738 2.80551 13.8276 3.08964 13.1844 3.20198C12.6842 3.22971 12.1898 3.23132 11.6889 3.22483C11.5056 3.22625 11.3223 3.22767 11.1334 3.22913C10.3517 3.23505 9.57014 3.23172 8.78844 3.22925C8.21653 3.22877 7.64479 3.23299 7.07291 3.23741C6.80967 3.23399 6.80967 3.23399 6.54111 3.23051C5.44275 3.23958 4.78961 3.38175 3.93398 4.13671C3.22342 5.04163 3.2441 5.83615 3.25213 6.93756C3.25055 7.20575 3.25055 7.20575 3.24893 7.47935C3.24627 8.06919 3.24803 8.65892 3.25007 9.24877C3.24966 9.65953 3.24908 10.0703 3.24832 10.4811C3.24743 11.3416 3.24872 12.2022 3.25154 13.0627C3.25498 14.1646 3.253 15.2664 3.24939 16.3684C3.2472 17.2166 3.2479 18.0647 3.24946 18.9129C3.24987 19.3192 3.24937 19.7254 3.24797 20.1316C3.24643 20.7 3.24878 21.2683 3.25213 21.8366C3.25091 22.0038 3.24969 22.171 3.24843 22.3433C3.25916 23.3269 3.35876 24.0304 3.93398 24.8648C4.91362 25.7416 5.7266 25.786 6.97739 25.7739C7.24857 25.776 7.24857 25.776 7.52522 25.7782C8.12053 25.7817 8.71564 25.7794 9.31095 25.7767C9.72594 25.7772 10.1409 25.778 10.5559 25.779C11.4248 25.7802 12.2935 25.7785 13.1624 25.7747C14.2749 25.7701 15.3873 25.7727 16.4998 25.7776C17.3565 25.7805 18.2131 25.7796 19.0698 25.7775C19.4799 25.7769 19.8901 25.7776 20.3003 25.7795C20.874 25.7815 21.4474 25.7784 22.0211 25.7739C22.2743 25.7764 22.2743 25.7764 22.5325 25.7788C23.6029 25.7634 24.2162 25.576 25.0645 24.8648C25.7605 23.8637 25.7514 22.9439 25.7429 21.7699C25.7464 21.4024 25.75 21.0349 25.7536 20.6674C25.7556 20.0919 25.7563 19.5165 25.756 18.9411C25.7567 18.383 25.7622 17.8251 25.7681 17.2671C25.7665 17.0956 25.7648 16.9241 25.7631 16.7474C25.7733 15.9376 25.8114 15.5039 26.2343 14.794C26.6745 14.4001 26.6745 14.4001 27.3788 14.2869C28.0832 14.4001 28.0832 14.4001 28.523 14.6826C29.0888 15.4921 29.0033 16.2728 28.9951 17.238C28.9958 17.4375 28.9966 17.6371 28.9974 17.8427C28.9979 18.2653 28.9965 18.6878 28.9931 19.1104C28.9888 19.7518 28.993 20.3927 28.9982 21.0341C28.9977 21.4457 28.9966 21.8574 28.9951 22.2691C28.9967 22.4586 28.9983 22.6482 29 22.8435C28.977 24.4984 28.5764 26.1637 27.3537 27.3552C27.1755 27.538 27.1755 27.538 26.9936 27.7246C25.5759 28.7055 24.1318 29.0095 22.4354 28.9938C22.1483 28.9959 22.1483 28.9959 21.8554 28.9981C21.2292 29.0016 20.6031 28.9993 19.9768 28.9966C19.5379 28.9971 19.0989 28.9979 18.6599 28.9989C17.7424 29.0001 16.825 28.9984 15.9075 28.9946C14.7355 28.99 13.5637 28.9926 12.3917 28.9975C11.4859 29.0004 10.5803 28.9994 9.67453 28.9974C9.24257 28.9968 8.81061 28.9975 8.37865 28.9994C7.77339 29.0014 7.16836 28.9983 6.56312 28.9938C6.38722 28.9954 6.21132 28.9971 6.03009 28.9987C4.42762 28.977 2.79269 28.5331 1.64484 27.3552C1.46195 27.1769 1.46195 27.1769 1.27537 26.9951C0.294534 25.5774 -0.00951537 24.1333 0.00619954 22.4369C0.00408368 22.1498 0.00408368 22.1498 0.00192508 21.8569C-0.00158854 21.2307 0.000717618 20.6046 0.00344816 19.9783C0.00290513 19.5394 0.00212325 19.1004 0.00111441 18.6614C-6.86552e-05 17.7439 0.00164081 16.8265 0.00541343 15.909C0.00999941 14.737 0.00735673 13.5651 0.00253769 12.3932C-0.000380685 11.4874 0.000559085 10.5817 0.00264056 9.67602C0.0031749 9.24406 0.00252794 8.8121 0.000644586 8.38014C-0.00141569 7.77488 0.00173862 7.16985 0.00619954 6.5646C0.00457008 6.38871 0.00294063 6.21281 0.0012618 6.03158C0.0229785 4.42911 0.466914 2.79418 1.64484 1.64633C1.76365 1.5244 1.88246 1.40248 2.00488 1.27686C3.48077 0.255772 4.96808 -0.0102144 6.73095 0.00493773Z" fill="#FFFBFB"/>
<path d="M19.0004 0.0307445C19.1992 0.0281919 19.398 0.0256393 19.6029 0.0230094C19.9246 0.0238955 19.9246 0.0238955 20.2527 0.0247996C20.4733 0.0237447 20.6939 0.0226898 20.9212 0.021603C21.3879 0.0203097 21.8546 0.0205817 22.3213 0.0222939C23.036 0.0240052 23.7504 0.0182218 24.4651 0.0118288C24.9183 0.0115044 25.3715 0.0116207 25.8247 0.0122219C26.0387 0.00996113 26.2528 0.00770037 26.4733 0.00537109C27.8964 0.0188416 27.8964 0.0188416 28.6201 0.380071C29.0672 1.27586 29.0026 2.18181 28.995 3.16844C28.9962 3.49888 28.9962 3.49888 28.9974 3.83599C28.9979 4.30152 28.9964 4.76705 28.9931 5.23256C28.9888 5.94551 28.993 6.65804 28.9982 7.37097C28.9976 7.82325 28.9966 8.27552 28.995 8.72779C28.9967 8.94121 28.9983 9.15463 29 9.37451C28.9812 10.8451 28.9812 10.8451 28.5159 11.5153C27.9098 11.8918 27.5767 11.9129 26.8757 11.7842C26.3667 11.4499 26.1584 11.2955 25.8695 10.778C25.7154 9.91968 25.7104 9.0699 25.706 8.19953C25.7009 7.96411 25.6958 7.72869 25.6906 7.48614C25.6788 6.90631 25.6715 6.3268 25.6682 5.74687C25.5609 5.85468 25.4535 5.96248 25.3429 6.07355C24.3252 7.09536 23.3069 8.11666 22.2881 9.13742C21.7645 9.66207 21.2411 10.1869 20.7181 10.7122C20.2123 11.2202 19.7059 11.7277 19.1993 12.2349C18.9145 12.5203 18.6302 12.8061 18.346 13.0919C15.4782 15.9599 15.4782 15.9599 14.4489 16.1486C13.7949 16.0103 13.7949 16.0103 13.3043 15.6958C12.8348 14.9634 12.8092 14.6584 12.9899 13.7966C13.3309 13.3521 13.3309 13.3521 13.7791 12.8695C13.9438 12.692 14.1084 12.5145 14.2781 12.3317C15.1156 11.4549 15.967 10.5935 16.8269 9.73872C17.0119 9.55397 17.197 9.36921 17.3876 9.17885C17.8725 8.69474 18.358 8.21123 18.8436 7.72786C19.3418 7.23168 19.8395 6.73491 20.3372 6.23819C21.3087 5.26887 22.2808 4.3002 23.2533 3.33195C23.1062 3.33113 22.959 3.3303 22.8074 3.32945C22.1383 3.32281 21.4696 3.30859 20.8007 3.29422C20.4534 3.29247 20.4534 3.29247 20.0991 3.29068C18.1802 3.24062 18.1802 3.24062 17.558 2.66298C17.216 2.12449 17.216 2.12449 17.216 1.39498C17.533 0.325253 17.8913 0.0376367 19.0004 0.0307445Z" fill="#FFFBFB"/>
</svg>
