<svg width="29" height="29" viewBox="0 0 29 29" fill="none" xmlns="http://www.w3.org/2000/svg">
<path d="M26.6975 15.4613C26.4812 17.8018 25.6028 20.0323 24.1651 21.8919C22.7274 23.7514 20.7898 25.163 18.5791 25.9615C16.3684 26.7601 13.976 26.9125 11.6818 26.4009C9.38765 25.8894 7.28661 24.735 5.62456 23.073C3.9625 21.4109 2.80816 19.3099 2.29662 17.0157C1.78508 14.7216 1.93748 12.3292 2.736 10.1184C3.53453 7.90773 4.94614 5.97016 6.80566 4.53244C8.66519 3.09473 10.8957 2.21633 13.2362 2.00003C11.8659 3.8539 11.2065 6.13803 11.378 8.43698C11.5494 10.7359 12.5403 12.897 14.1704 14.5271C15.8005 16.1572 17.9616 17.1481 20.2606 17.3196C22.5595 17.491 24.8436 16.8316 26.6975 15.4613Z" stroke="#1E1E1E" stroke-width="4" stroke-linecap="round" stroke-linejoin="round"/>
</svg>
